<?xml version="1.0" encoding="utf-8"?>
<!-- Generator: Adobe Illustrator 16.2.1, SVG Export Plug-In . SVG Version: 6.00 Build 0)  -->
<!DOCTYPE svg PUBLIC "-//W3C//DTD SVG 1.1//EN" "http://www.w3.org/Graphics/SVG/1.1/DTD/svg11.dtd">
<svg version="1.1" xmlns="http://www.w3.org/2000/svg" xmlns:xlink="http://www.w3.org/1999/xlink" x="0px" y="0px" width="50px"
	 height="49.999px" viewBox="0 0 50 49.999" enable-background="new 0 0 50 49.999" xml:space="preserve">
<g id="Layer_1">
</g>
<g id="missouri">
</g>
<g id="illinois">
	<path fill="#85C340" d="M36.436,31.553c-0.041-0.157-0.192-0.314-0.214-0.475c-0.01-0.068,0.015-0.137,0.021-0.201
		c0.009-0.07,0.017-0.138,0.023-0.205c0.008-0.068,0.038-0.14,0.021-0.204c-0.101-0.403-0.633-0.804-0.821-1.175
		c-0.18-0.364,0.392-0.388,0.445-0.632c0.052-0.203-0.356-0.507-0.317-0.713c0.042-0.229,0.483-0.242,0.552-0.392
		c0.167-0.364-0.098-2.289-0.122-2.802c-0.207-4.819-0.416-9.639-0.625-14.457l0.007-0.012c-0.729-0.554-0.563-1.724-0.966-2.507
		c-0.074-0.142-0.286-0.165-0.393-0.271c-0.26-0.247-0.519-0.988-0.545-1.335c-0.034-0.438,0.1-0.823,0.104-1.268
		c0.001-0.045-0.007-0.089-0.009-0.135h-0.003C28.492,4.919,23.383,5.02,18.278,5.07c-0.204,0.28,0.702,0.783,0.937,0.963
		c0.3,0.232,0.154,0.567,0.348,0.85c0.51,0.75,1.476,0.678,1.476,1.81c-0.001,0.316-0.184,1.07-0.343,1.346
		c-0.116,0.201-0.422,0.292-0.54,0.495c-0.205,0.349-0.061,0.905-0.258,1.223c-0.217,0.353-0.857,0.355-1.185,0.5
		c-0.232,0.104-0.395,0.406-0.635,0.494c-0.295,0.109-1.792,0.021-1.926,0.258c-1.022,1.81,0.834,2.046,0.479,3.285
		c-0.104,0.361-0.589,0.624-0.737,0.978c-0.159,0.384-0.183,0.818-0.365,1.219c-0.066,0.137-1.279,0.417-1.485,0.732
		c-0.093,0.142,0.8,1.336-0.094,1.338c0,0-0.144,0.059-0.186,0.12c-0.216,0.314-0.205,0.852-0.236,1.218
		c-0.038,0.491-0.039,0.983,0.141,1.458c0.06,0.162,0.247,0.319,0.281,0.485c0.028,0.15-0.126,0.336-0.095,0.488
		c0.034,0.169,0.227,0.322,0.282,0.483c0.062,0.179,0.007,0.442,0.094,0.609c0.3,0.569,1.163,0.935,1.61,1.333
		c0.172,0.152,0.22,0.441,0.381,0.604c0.48,0.495,1.4,0.725,1.623,1.45c0.083,0.264,0.008,0.586,0.103,0.847
		c0.034,0.098,0.17,0.141,0.193,0.244c0.081,0.387-0.215,1.235,0.491,1.57c0.407,0.194,0.709-0.472,1.043-0.617
		c0.173-0.076,1.602,0.74,1.738,0.946c0.177,0.271-0.332,0.617-0.373,0.854c-0.031,0.188,0.137,0.413,0.106,0.604
		c-0.146,0.871-1.578,1.94-1.018,2.925c0.167,0.292,0.527,0.747,0.787,0.959c0.132,0.106,0.366,0.115,0.488,0.234
		c0.1,0.097,0.106,0.26,0.199,0.36c0.195,0.21,0.866,0.288,0.978,0.467c0.111,0.175-0.215,0.282,0.009,0.484
		c0.302,0.272,0.324-0.17,0.579-0.13c0.105,0.014,0.119,0.176,0.201,0.236c0.134,0.103,0.369,0.116,0.491,0.232
		c0.188,0.183,0.208,0.546,0.405,0.72c0.178,0.16,0.645,0.151,0.785,0.344c0.144,0.199-0.047,0.729,0.023,0.969
		c0.102,0.342,0.532,0.606,0.61,0.954c0.123,0.535-0.478,0.542-0.463,1.102l0.298,0.115l0.007,0.359
		c0.087,0.268,0.421,0.449,0.51,0.716c0.039,0.115-0.05,0.257,0.009,0.362c0.029,0.055,0.538,0.354,0.599,0.346
		c0.341-0.053-0.433-0.459-0.114-0.603c0.297-0.13,0.38,0.605,0.609,0.71c0.221,0.103,0.306-0.113,0.496,0.108
		c0,0-0.069-0.079-0.1-0.118c-0.196-0.224-0.207-0.305-0.214-0.6c-0.003-0.065,0.758-1.073,0.851-1.114
		c0.897-0.401,2.231,1.018,3.179,0.982c0.059-0.002,0.062-0.104,0.092-0.152c0.658-1.102-0.864-0.991-0.177-2.144
		c0.165-0.272,0.44-0.036,0.682-0.146l0.184-0.25c0.359-0.241,0.871-0.152,1.261-0.292c0.073-0.024,0.17-0.054,0.188-0.13
		c0.144-0.508-0.579-0.651-0.531-1.068c0.049-0.41,0.549-0.866,0.729-1.241c0,0-0.494-0.436-0.35-0.632l0.321-0.094
		c0.002-0.003-0.147-1.068-0.145-1.084c0.032-0.116,0.28-0.063,0.315-0.175c0.115-0.366-0.296,0.085-0.092-0.291
		c0.073-0.134,0.34-0.159,0.423-0.29c0.021-0.036,0.016-0.089-0.007-0.123c-0.25-0.384-0.4-0.346-0.132-0.842
		c0.177-0.332,0.11,0.07,0.289-0.013c0.08-0.037-0.001-0.243,0.084-0.247c0.053-0.003,0.069,0.079,0.103,0.117
		c0.035,0.04,0.056,0.142,0.104,0.116c0.063-0.035,0.035-0.137,0.054-0.205c0.103-0.381,0.216-0.298,0.392-0.543
		c0.093-0.127,0.018-0.367,0.076-0.489c0.119-0.247,0.45-0.269,0.558-0.39c0.058-0.062-0.148-0.396-0.115-0.481
		c0.038-0.118,0.228-0.14,0.274-0.254l-0.019-0.364C36.087,32.354,36.676,32.455,36.436,31.553"/>
</g>
<g id="california">
</g>
</svg>
