<?xml version="1.0" encoding="utf-8"?>
<!-- Generator: Adobe Illustrator 16.2.1, SVG Export Plug-In . SVG Version: 6.00 Build 0)  -->
<!DOCTYPE svg PUBLIC "-//W3C//DTD SVG 1.1//EN" "http://www.w3.org/Graphics/SVG/1.1/DTD/svg11.dtd">
<svg version="1.1" xmlns="http://www.w3.org/2000/svg" xmlns:xlink="http://www.w3.org/1999/xlink" x="0px" y="0px" width="50px"
	 height="49.999px" viewBox="0 0 50 49.999" enable-background="new 0 0 50 49.999" xml:space="preserve">
<g id="Layer_1">
</g>
<g id="missouri">
	<path fill="#85C340" d="M43.415,35.363c0.227-0.204-0.372-0.214-0.305-0.447c0.13-0.469,0.371-0.144,0.329-0.946
		c-0.187-0.207-0.265,0-0.479-0.093c-0.222-0.096-0.316-0.799-0.601-0.669c-0.302,0.143,0.451,0.521,0.123,0.575
		c-0.058,0.009-0.552-0.267-0.582-0.32c-0.059-0.098,0.022-0.235-0.016-0.346c-0.091-0.254-0.417-0.424-0.503-0.676l-0.017-0.347
		l-0.288-0.104c-0.027-0.537,0.549-0.556,0.42-1.063c-0.082-0.334-0.502-0.577-0.605-0.905c-0.074-0.227,0.1-0.739-0.044-0.929
		c-0.139-0.181-0.587-0.163-0.76-0.314c-0.191-0.163-0.221-0.51-0.403-0.68c-0.121-0.108-0.346-0.117-0.477-0.214
		c-0.082-0.057-0.097-0.212-0.197-0.224c-0.247-0.032-0.26,0.396-0.556,0.14c-0.217-0.188,0.091-0.302-0.017-0.465
		c-0.113-0.169-0.757-0.229-0.947-0.427c-0.093-0.096-0.104-0.252-0.2-0.345c-0.119-0.11-0.344-0.113-0.474-0.213
		c-0.255-0.198-0.609-0.626-0.776-0.903c-0.559-0.934,0.793-1.991,0.915-2.828c0.025-0.185-0.139-0.396-0.114-0.581
		c0.032-0.224,0.515-0.569,0.338-0.827c-0.134-0.191-1.521-0.946-1.688-0.87c-0.316,0.146-0.591,0.791-0.986,0.614
		c-0.686-0.309-0.42-1.129-0.506-1.499c-0.021-0.097-0.154-0.134-0.19-0.229c-0.099-0.247-0.03-0.558-0.116-0.812
		c-0.229-0.688-1.116-0.89-1.589-1.352c-0.158-0.154-0.21-0.432-0.378-0.574c-0.439-0.373-1.273-0.707-1.572-1.245
		c-0.088-0.159-0.041-0.41-0.104-0.581c-0.057-0.155-0.247-0.297-0.282-0.46c-0.031-0.144,0.111-0.324,0.082-0.468
		c-0.036-0.163-0.221-0.31-0.282-0.463c-0.182-0.452-0.191-0.922-0.166-1.397c0.022-0.349,0-0.863,0.2-1.173
		c0.04-0.059,0.177-0.119,0.177-0.119s-0.103-0.049-0.151-0.073c-0.295-0.146-0.307-0.314-0.546-0.494
		c-0.439-0.331-0.688-0.665-0.946-1.151c-0.006-0.01-0.987,0.086-1.396,0.119c-1.421,0.119-2.832,0.186-4.255,0.218
		c-5.325,0.11-10.635,0.059-15.949-0.248C6.514,9.583,6.841,9.46,7.038,10.021c0.052,0.155,0.056,0.926,0.062,0.938
		c0.01,0.019,0.932,0.562,0.969,0.611l-0.097,0.231c0.049,0.22,0.385,0.375,0.434,0.594c0.025,0.119-0.176,0.489-0.106,0.581
		c0.04,0.053,0.383,0.041,0.533,0.248c0.029,0.041,0.087,0.118,0.087,0.118s0.702,0.696,1.153,0.847
		c0.278,0.092,0.48-0.468,0.729-0.217l-0.008,0.352c0.05,0.11,0.3,0.128,0.357,0.238c0.028,0.06,0.018,0.131,0.025,0.195
		c0.018,0.131,0.084,0.265,0.053,0.391c-0.068,0.262-0.455-0.054-0.542-0.013c-0.109,0.054-0.026,0.256-0.1,0.349
		c-0.052,0.064-0.224,0.047-0.273,0.111c-0.119,0.146-0.07,0.424-0.195,0.58c-0.046,0.056-0.151,0.047-0.184,0.111
		c-0.213,0.387,0.973,1.129,1.061,1.304c-0.001,0.004-0.096,0.234-0.096,0.234c-0.009,0.414,0.283,0.331,0.441,0.594
		c0.073,0.112-0.004,0.367,0.083,0.467c0.285,0.323,0.876,0.168,1.182,0.369c0.03,0.022-0.061,0.04-0.092,0.059
		c-0.194,0.117-0.102,0.662-0.102,0.888c-0.01,0.895-0.022,1.792-0.031,2.691c-0.044,3.786-0.085,7.579-0.129,11.366
		c-0.022,1.161-0.042,2.319-0.061,3.479c6.125,0.105,12.251,0.093,18.375-0.047c1.727-0.039,3.453-0.086,5.183-0.145
		c0.302-0.012,1.669-0.171,1.863-0.065c0.151,0.079,0.211,0.427,0.308,0.566c0.342,0.512,0.508,0.914-0.043,1.395
		c-0.142,0.122-0.441,0.115-0.563,0.252c-0.08,0.092-0.012,0.256-0.081,0.349c-0.004,0.002-0.284,0.129-0.284,0.129
		c-0.063,0.068-0.48,0.892-0.447,0.943c0.038,0.058,0.739-0.025,0.83-0.03c0.973-0.037,1.94-0.076,2.91-0.117
		c0,0,0.048-0.109,0.069-0.164c0.08-0.196,0.148-0.498,0.277-0.664c0.048-0.06,0.365-0.179,0.374-0.248
		c0.017-0.165-0.4-0.368-0.407-0.537c-0.01-0.231,0.689-0.312,0.65-0.4c-0.064-0.151-0.414-0.18-0.492-0.325
		c-0.166-0.312,0.527-0.177,0.556-0.373c0.054-0.328-0.391-0.977-0.246-1.268c0.017-0.035,0.061-0.041,0.089-0.062
		c0.663-0.445-0.207,1.159,0.788,0.487c0,0,0.129-0.467,0.157-0.702c0.008-0.071-0.07-0.349,0.077-0.354
		c0.205-0.009,0.406,0.444,0.687,0.432c0.189-0.009,0.444-0.565,0.441-0.72c-0.005-0.151-0.195-0.301-0.214-0.453
		C43.012,35.282,43.297,35.47,43.415,35.363"/>
</g>
<g id="illinois">
</g>
<g id="california">
</g>
</svg>
