<?xml version="1.0" encoding="utf-8"?>
<!-- Generator: Adobe Illustrator 16.2.1, SVG Export Plug-In . SVG Version: 6.00 Build 0)  -->
<!DOCTYPE svg PUBLIC "-//W3C//DTD SVG 1.1//EN" "http://www.w3.org/Graphics/SVG/1.1/DTD/svg11.dtd">
<svg version="1.1" xmlns="http://www.w3.org/2000/svg" xmlns:xlink="http://www.w3.org/1999/xlink" x="0px" y="0px" width="50px"
	 height="49.999px" viewBox="0 0 50 49.999" enable-background="new 0 0 50 49.999" xml:space="preserve">
<g id="Layer_1">
</g>
<g id="missouri">
</g>
<g id="illinois">
</g>
<g id="california">
	<path fill="#85C340" d="M41.145,45.293c0.156-0.055-0.027-0.204-0.007-0.287c0.029-0.116,0.271-0.178,0.309-0.293
		c0.008-0.031-0.017-0.064-0.025-0.096l-0.045-0.189c-0.094-0.643-0.8-0.158-0.888-0.627c-0.034-0.178,0.151-0.4,0.112-0.576
		c-0.034-0.159-0.215-0.231-0.255-0.354c-0.025-0.075,0.129-0.21,0.118-0.29c-0.005-0.031-0.064-0.038-0.063-0.07
		c-0.001-0.039,0.028-0.076,0.061-0.097c0,0,0.247-0.053,0.248-0.053c0.091-0.074,0.117-0.331,0.177-0.433
		c0.045-0.08,0.143-0.139,0.182-0.222c0.064-0.137,0.006-0.362,0.051-0.503c0,0,0.121-0.146,0.121-0.147
		c0.032-0.205-0.211-0.416-0.138-0.644l0.121-0.146c0-0.001-0.129-0.213-0.128-0.213c0.015-0.116,0.298-0.264,0.361-0.367
		c0.061-0.1,0.043-0.274,0.114-0.362c0.154-0.188,0.933-0.431,0.967-0.745c0.013-0.117-0.708-0.737-0.817-0.771
		c-0.039-0.012-0.09,0.027-0.123,0.003c-0.025-0.02,0-0.064-0.001-0.096c-0.004-0.095-0.229-0.685-0.284-0.81
		c-0.089-0.198-0.477-0.406-0.48-0.591c-0.004-0.144-0.145-0.163-0.19-0.284c-0.048-0.136-0.009-0.432-0.009-0.432
		c-4.778-4.062-9.41-8.295-13.877-12.696c-1.184-1.167-2.359-2.348-3.521-3.539c-0.247-0.251-1.329-1.229-1.419-1.465
		c-0.101-0.269,0.039-0.84,0.053-1.132c0.041-0.881,0.083-1.762,0.124-2.644c0.146-3.109,0.29-6.22,0.437-9.331
		C17.879,4.577,13.335,4.247,8.8,3.797c0.159,0.366-0.328,0.86-0.311,0.923c0.019,0.068,0.264,0.122,0.312,0.18
		c0.126,0.147,0.261,1.298,0.24,1.49C8.996,6.781,8.707,7.147,8.598,7.518C8.52,7.786,8.704,7.995,8.637,8.255
		C8.593,8.425,8.299,8.868,8.32,8.92c0.016,0.038,0.315-0.236,0.335-0.004c0.007,0.088-0.401,0.128-0.451,0.322
		C8.198,9.264,8.219,9.289,8.225,9.313c0.007,0.024,0.03,0.051,0.021,0.076c-0.027,0.075-0.23,0.059-0.222-0.022
		C8.041,9.203,8.141,9.325,8.157,9.16C8.16,9.13,8.115,9.205,8.094,9.229C7.963,9.367,7.967,9.482,7.883,9.646
		c-0.126,0.254-0.405,0.534-0.42,0.837c-0.008,0.171,0.154,0.359,0.172,0.531c0.01,0.101-0.072,0.266-0.037,0.361
		c0.108,0.3,0.624,0.453,0.772,0.736c0.043,0.081-0.009,0.211,0.028,0.295c0.045,0.102,0.244,0.162,0.315,0.252
		c0.125,0.153,0.342,0.501,0.387,0.694c0.021,0.09-0.045,0.199-0.028,0.288c0.047,0.243,0.206,0.648,0.2,0.898
		c-0.005,0.187-0.297,0.552-0.308,0.848c-0.016,0.447,0.282,0.807,0.299,1.233c0.015,0.379-0.198,0.465-0.135,0.682
		c0.106,0.367,0.554,0.684,0.777,0.947c0.175,0.207,0.183,0.551,0.394,0.765c0.19,0.194,0.548,0.282,0.707,0.499
		c0.081,0.107,0.115,0.665,0.118,0.667c0.024,0.018,0.032-0.065,0.063-0.068c0.131-0.012,0.461,0.514,0.414,0.594
		c-0.02,0.034-0.088-0.014-0.116,0.016c-0.093,0.09-0.043,0.508-0.113,0.645c-0.027,0.056-0.162,0.083-0.128,0.137
		c0.166,0.244,0.169-0.179,0.256-0.271c0.036-0.039,0.012,0.108,0.045,0.148c0.064,0.073,0.208,0.135,0.291,0.188
		c0.181,0.117,0.235,0.431,0.41,0.524c0.167,0.092,0.007-0.238,0.18-0.058l0.196,0.161c0.053,0.043,0.333,0.336,0.413,0.25
		c0.026-0.026-0.014-0.073-0.021-0.111c-0.006-0.035-0.017-0.072-0.021-0.109c-0.019-0.233,0.072,0.173,0.174,0.013
		c0.015-0.023-0.214-0.2-0.216-0.235c-0.003-0.085,0.243-0.207,0.197-0.275l-0.169-0.086c-0.024-0.059,0.081-0.22,0.083-0.284
		l-0.048-0.15c0.104-0.125,0.263,0.017,0.364-0.19c0.03-0.062,0.11,0.082,0.167,0.122c0.092,0.069,0.581,0.47,0.664,0.45
		c0.125-0.029,0.52-0.522,0.609-0.393c0.063,0.093-0.265,0.142,0.206,0.378c0.002,0.002,0.501-0.028,0.525-0.036
		c0.065-0.021,0.129-0.197,0.156-0.136c0.06,0.147-0.268,0.133-0.166,0.281c0.08,0.113,0.474-0.281,0.6-0.25
		c0.026,0.006,0.731,0.557,0.488,0.54c-0.04-0.002-0.434-0.44-0.551-0.473c-0.068-0.018-0.364,0.224-0.367,0.266
		c-0.001,0.033,0.113,0.049,0.112,0.081c-0.001,0.015-0.271-0.059-0.287-0.062c-0.229-0.059-0.457-0.119-0.686-0.179
		c-0.256-0.067-0.416,0.085-0.645,0.055c-0.086-0.012-0.191-0.173-0.279-0.166c-0.035,0.002-0.054,0.044-0.082,0.066
		c-0.15,0.122-0.354,0.082-0.397,0.115l-0.074,0.214c-0.033,0.02-0.09-0.039-0.116-0.01c-0.071,0.076,0.312,0.295,0.325,0.316
		c0.106,0.155-0.125,0.367-0.038,0.506c0,0.001,0.224,0.114,0.224,0.114c0.027,0.024,0.048,0.056,0.054,0.088
		c0.007,0.037-0.029,0.08-0.009,0.11l0.174,0.012c0.116,0.069,0.128,0.423,0.153,0.542c0.093,0.423,0.098,0.218,0.247,0.433
		c0.026,0.039,0.1,0.094,0.064,0.123c-0.125,0.102-0.69-0.307-0.749-0.391l0.012-0.145c-0.107-0.104-0.418-0.046-0.445-0.325
		c-0.018-0.188,0.143-0.353,0.143-0.353c0.004-0.046-0.101-0.036-0.11-0.081c-0.009-0.052,0.076-0.088,0.069-0.14
		c-0.025-0.216-0.4-0.23-0.465-0.036c-0.056,0.173,0.051,0.404,0.015,0.583c-0.037,0.175-0.241,0.374-0.104,0.573l0.169,0.086
		c0.063,0.056,0.058,0.109,0.072,0.188c0.021,0.111,0.043,0.221,0.064,0.332c0.006,0.037,0.014,0.075,0.021,0.111
		c0.005,0.037,0.021,0.071,0.021,0.109c-0.003,0.16-0.118,0.346-0.096,0.503c0.032,0.265,0.457,0.733,0.639,0.919
		c0.094,0.099,0.369,0.318,0.508,0.329c0.079,0.005,0.102-0.065,0.183-0.061l0.111,0.082c0.095-0.018,0.094-0.117,0.188-0.133
		c0.057-0.01,0.468,0.659,0.479,0.76c0.001,0.002-0.073,0.21-0.075,0.212c0.007,0.062,0.151,0.106,0.109,0.152l-0.171-0.083
		c-0.096,0.063-0.09,0.396-0.155,0.496c-0.14,0.221-0.271-0.313-0.483,0.112c-0.051,0.103,0.068,0.094,0.109,0.151
		c0.006,0.009,0.119,0.654,0.127,0.736c0.01,0.098-0.08,0.351-0.03,0.433c0.123,0.196,0.589,0.389,0.739,0.557
		c0.156,0.179,0.155,0.497,0.313,0.674c0.064,0.073,0.237,0.083,0.29,0.164c0.024,0.036,0.015,0.085,0.022,0.129
		c0.015,0.085,0.029,0.17,0.043,0.255c0.007,0.043,0.004,0.09,0.021,0.129c0.091,0.204,0.358,0.33,0.448,0.535
		c0.048,0.112-0.024,0.337,0.092,0.44c0.095,0.083,0.315,0.021,0.416,0.098c0.238,0.184,0.262,0.637,0.493,0.825
		c0.128,0.104,0.425,0.057,0.535,0.177c0.023,0.024,0.009,0.064,0.015,0.098l0.028,0.193c0.023,0.042,0.121,0.032,0.117,0.08
		l-0.125,0.064l0.007-0.145c-0.146,0.077-0.202,0.523-0.097,0.646c0.262,0.305,0.577,0.1,0.827,0.406
		c0.231,0.282-0.167,0.594-0.168,0.858c-0.002,0.122,0.155,0.246,0.162,0.369c0.008,0.117-0.086,0.239-0.081,0.356
		c0.004,0.096,0.114,0.201,0.106,0.294c-0.021,0.251-0.22,0.275-0.153,0.569l0.243,0.014c0.074,0.028,0.13,0.092,0.177,0.154
		c0.057,0.073,0.084,0.323,0.165,0.368c0.136,0.076,1.005-0.1,1.232-0.082c0.346,0.026,0.585,0.246,0.903,0.331
		c0.377,0.099,0.939-0.049,1.225,0.053c0.303,0.106,0.49,0.483,0.775,0.606c0.056,0.025,0.136-0.032,0.184,0.008
		c0.219,0.184,0.004,0.462,0.526,0.739c0.157,0.084,1.031,0.492,1.155,0.47c0.238-0.042,0.713-0.196,0.991-0.112
		c0.077,0.021,0.501,0.759,0.531,0.877c0.046,0.174-0.155,0.226-0.073,0.429l0.185,0.006c0.061,0.018,0.186,0.158,0.244,0.15
		c0.011-0.001,0.112-0.436,0.625-0.202c0.235,0.108,0.392,0.443,0.607,0.59c0.107,0.072,0.26,0.081,0.37,0.151
		c0.203,0.131,0.312,0.355,0.486,0.513c0.703,0.632,0.977,0.638,1.408,1.601c0.109,0.246,0.338,0.742,0.299,1.01
		c-0.011,0.081-0.119,0.13-0.128,0.213c-0.01,0.087,0.115,0.198,0.121,0.287c0.006,0.061-0.142,0.43-0.006,0.431
		c0.042,0.001,0.088-0.285,0.13-0.286c0.071,0.002,0.499,0.437,0.371,0.508c-0.087,0.049-0.418-0.51-0.374-0.292l0.187,0.146
		c0.053,0.072,0.079,0.218,0.11,0.303c0.025,0.069,0.044,0.135,0.061,0.2h0.013c2.161-0.164,4.318-0.353,6.476-0.565
		c0.291-0.028,2.344-0.3,2.459-0.246c0.026,0.012,0.041,0.03,0.054,0.05l0.066-0.062C40.686,45.104,40.862,45.391,41.145,45.293"/>
</g>
</svg>
